# xmcd
#
# Track frame offsets:
#	150
#	43435
#	74285
#	99272
#	133800
#	140990
#	154267
#	172420
#	188122
#	208685
#
# Disc length: 2970
#
# Revision: 1
# Processed by: cddbd v1.5.1PL0 Copyright (c) Steve Scherf et al.
# Submitted via: CDex 1.51
# Normalized: r0:TDELIM( - )
#
DISCID=a30b980a
DTITLE=Amherst Saxophone Quartet - Mozart to Modern
DYEAR=1990
DGENRE=Jazz
TTITLE0=W.A. Mozart - Quintet for Piano and Wind Instruments in E-flat, K.452, I. Largo - Allegro moderato
TTITLE1=W.A. Mozart - Quintet for Piano and Wind Instruments in E-flat, K.452, II. Larghetto
TTITLE2=W.A. Mozart - Quintet for Piano and Wind Instruments in E-flat, K.452, III. Rondo: Allegretto
TTITLE3=George Gershwin - Lullaby
TTITLE4=Lukas Foss - Saxophone Quartet - I. Introduction
TTITLE5=Lukas Foss - Saxophone Quartet - II. Canon
TTITLE6=Lukas Foss - Saxophone Quartet - III. Chorale
TTITLE7=Lukas Foss - Saxophone Quartet - IV. Canon B (backwards)
TTITLE8=Eubie Blake - Jassamine Lane
TTITLE9=Eubie Blake and John Guarnieri - Eubie Dubie
EXTD=YEAR: 1990
EXTT0=
EXTT1=
EXTT2=
EXTT3=
EXTT4=
EXTT5=
EXTT6=
EXTT7=
EXTT8=
EXTT9=
PLAYORDER=
